<svg xmlns="http://www.w3.org/2000/svg" viewBox="31.3 41 52.84 67.5">
  <path d="M65.6,89.4c0.1-0.4,0-0.8-0.3-1.3c-0.3-0.5-0.7-0.9-1.3-1.4c-0.6-0.5-1.2-0.9-1.8-1.3   c-0.6-0.4-1.4-0.9-2.3-1.4s-1.7-0.9-2.2-1.2c-0.5-0.3-1.2-0.7-2-1c-0.8-0.4-1.2-0.6-1.3-0.6c-0.1-0.1-0.6-0.3-1.4-0.7   c-0.9-0.4-1.5-0.7-1.8-0.8c-0.3-0.2-0.9-0.4-1.8-0.8c-0.9-0.4-1.5-0.7-1.9-0.9c-0.4-0.2-1-0.5-1.8-0.9c-0.8-0.4-1.4-0.7-1.9-1   c-0.5-0.3-1-0.7-1.7-1c-0.7-0.4-1.2-0.7-1.6-1.1c-0.4-0.3-0.9-0.7-1.3-1.2c-0.5-0.4-0.8-0.8-1.2-1.2c-3.3-4.1-4.4-8.7-3.5-13.6   c0.7-3.5,2.3-6.5,4.7-8.9c2.5-2.4,5.2-4.1,8.3-5.1c3.1-1,6.5-1.5,10.1-1.5c4.5,0,8.8,1,12.9,3c4.1,2,7.6,4.8,10.5,8.3L68.8,64.2   c-3.1-4.1-6.9-6.3-11.2-6.6c-2-0.2-3.6,0-4.9,0.8c-1.1,0.5-1.7,1.2-1.7,1.8c-0.1,0.4,0.1,0.8,0.4,1.3c0.3,0.5,0.8,1,1.3,1.4   c0.5,0.4,1.2,0.9,2.1,1.3c0.8,0.5,1.6,0.8,2.2,1.1c0.6,0.3,1.3,0.6,2,1c0.7,0.4,1.2,0.6,1.3,0.6c0.8,0.5,2.1,1.1,3.9,1.8   c1.7,0.8,3.1,1.4,4.1,1.9c1,0.5,2.3,1.2,3.8,2.1c1.5,0.9,2.8,1.7,3.7,2.5c0.9,0.8,1.9,1.7,3,2.8c1.1,1.1,1.9,2.2,2.4,3.4   c0.5,1.2,0.9,2.5,1.2,4c0.3,1.5,0.3,3.2,0.1,4.9c-0.5,3.7-2,6.8-4.7,9.4c-2.6,2.6-5.7,4.5-9,5.6c-3.4,1.1-6.9,1.7-10.7,1.7   c-4.7,0-9.3-1.2-13.9-3.5c-4.6-2.3-8.4-5.3-11.4-9l12-10.6c5.6,5.6,10.9,8.2,16,7.7C63.7,91.5,65.3,90.7,65.6,89.4z" fill="#121212"/>
</svg>